<svg
    width="100"
    height="100"
    viewBox="0 0 100 100"
    fill="none"
    xmlns="http://www.w3.org/2000/svg"
>
    <!-- Chat Bubble -->
    <path
        d="M10 30C10 20 20 10 30 10H70C80 10 90 20 90 30V60C90 70 80 80 70 80H40L20 90V70H30C20 70 10 60 10 50V30Z"
        fill="#FF6699"
        stroke="#D13F67"
        stroke-width="4"
        stroke-linecap="round"
        stroke-linejoin="round"
    />
    <!-- Heart -->
    <path
        d="M50 65L45 60C38 53 30 45 30 37C30 30 35 25 42 25C46 25 50 28 50 30C50 28 54 25 58 25C65 25 70 30 70 37C70 45 62 53 55 60L50 65Z"
        fill="#FFFFFF"
        stroke="#D13F67"
        stroke-width="3"
        stroke-linecap="round"
        stroke-linejoin="round"
    />
</svg>
